<svg width="35" height="35" viewBox="0 0 35 35" fill="none" xmlns="http://www.w3.org/2000/svg">
<circle cx="18" cy="15" r="5" fill="white"/>
<path fill-rule="evenodd" clip-rule="evenodd" d="M5.10419 15.0468C5.10419 8.33867 10.7098 2.91675 17.4905 2.91675C24.2902 2.91675 29.8959 8.33867 29.8959 15.0468C29.8959 18.4271 28.6665 21.5654 26.643 24.2253C24.4108 27.1594 21.6594 29.7158 18.5625 31.7224C17.8537 32.1861 17.214 32.2211 16.4361 31.7224C13.3215 29.7158 10.5701 27.1594 8.357 24.2253C6.33208 21.5654 5.10419 18.4271 5.10419 15.0468ZM13.4083 15.4245C13.4083 17.6717 15.242 19.4392 17.4905 19.4392C19.7404 19.4392 21.5918 17.6717 21.5918 15.4245C21.5918 13.1948 19.7404 11.3413 17.4905 11.3413C15.242 11.3413 13.4083 13.1948 13.4083 15.4245Z" fill="#199A8E"/>
</svg>
