<svg width="32" height="32" viewBox="0 0 32 32" fill="none" xmlns="http://www.w3.org/2000/svg">
<g clip-path="url(#clip0_331_1039)">
<path d="M24.5 25C26.433 25 28 23.433 28 21.5C28 19.567 26.433 18 24.5 18C22.567 18 21 19.567 21 21.5C21 23.433 22.567 25 24.5 25Z" fill="#00E1F0"/>
<path d="M29 21.5C28.9994 20.4807 28.6529 19.4919 28.017 18.6953C27.3812 17.8987 26.4938 17.3415 25.5 17.115V14.25C25.5 12.9902 24.9996 11.782 24.1088 10.8912C23.218 10.0004 22.0098 9.5 20.75 9.5C19.4902 9.5 18.282 10.0004 17.3912 10.8912C16.5004 11.782 16 12.9902 16 14.25V26.75C15.9987 27.6115 15.6558 28.4374 15.0466 29.0466C14.4374 29.6558 13.6115 29.9987 12.75 30H11.25C10.3885 29.9987 9.56257 29.6558 8.95336 29.0466C8.34416 28.4374 8.00132 27.6115 8 26.75V20H9C9.65661 20 10.3068 19.8707 10.9134 19.6194C11.52 19.3681 12.0712 18.9998 12.5355 18.5355C12.9998 18.0712 13.3681 17.52 13.6194 16.9134C13.8707 16.3068 14 15.6566 14 15V2.5C14 1.83696 13.7366 1.20107 13.2678 0.732233C12.7989 0.263392 12.163 0 11.5 0L10 0C9.73478 0 9.48043 0.105357 9.29289 0.292893C9.10536 0.48043 9 0.734784 9 1C9 1.26522 9.10536 1.51957 9.29289 1.70711C9.48043 1.89464 9.73478 2 10 2H11.5C11.6326 2 11.7598 2.05268 11.8536 2.14645C11.9473 2.24021 12 2.36739 12 2.5V14H2V10.5C2 10.2348 1.89464 9.98043 1.70711 9.79289C1.51957 9.60536 1.26522 9.5 1 9.5C0.734784 9.5 0.48043 9.60536 0.292893 9.79289C0.105357 9.98043 0 10.2348 0 10.5L0 15C0 16.3261 0.526784 17.5979 1.46447 18.5355C2.40215 19.4732 3.67392 20 5 20H6V26.75C6.00132 28.1411 6.55418 29.4749 7.53738 30.4591C8.52058 31.4432 9.85389 31.9974 11.245 32H12.745C14.1374 31.9987 15.4725 31.4453 16.4576 30.4612C17.4427 29.477 17.9974 28.1424 18 26.75V14.25C18 13.5207 18.2897 12.8212 18.8055 12.3055C19.3212 11.7897 20.0207 11.5 20.75 11.5C21.4793 11.5 22.1788 11.7897 22.6945 12.3055C23.2103 12.8212 23.5 13.5207 23.5 14.25V17.115C22.674 17.3033 21.9179 17.7209 21.3187 18.3199C20.7195 18.9188 20.3015 19.6748 20.1129 20.5007C19.9243 21.3267 19.9727 22.1891 20.2525 22.9888C20.5324 23.7885 21.0323 24.4929 21.6947 25.0211C22.3572 25.5492 23.1553 25.8796 23.9972 25.9743C24.8391 26.069 25.6906 25.924 26.4538 25.5562C27.217 25.1883 27.8609 24.6125 28.3113 23.8949C28.7618 23.1774 29.0005 22.3472 29 21.5ZM2.18 16H11.835C11.6278 16.586 11.2438 17.0931 10.7359 17.4514C10.2281 17.8097 9.6215 18.0014 9 18H5C4.38106 17.9983 3.7778 17.8051 3.27293 17.4471C2.76807 17.089 2.38631 16.5835 2.18 16ZM24.5 24C24.0055 24 23.5222 23.8534 23.1111 23.5787C22.7 23.304 22.3795 22.9135 22.1903 22.4567C22.0011 21.9999 21.9516 21.4972 22.048 21.0123C22.1445 20.5273 22.3826 20.0819 22.7322 19.7322C23.0819 19.3826 23.5273 19.1445 24.0123 19.048C24.4972 18.9516 24.9999 19.0011 25.4567 19.1903C25.9135 19.3795 26.304 19.7 26.5787 20.1111C26.8534 20.5222 27 21.0055 27 21.5C27 21.8283 26.9353 22.1534 26.8097 22.4567C26.6841 22.76 26.4999 23.0356 26.2678 23.2678C26.0356 23.4999 25.76 23.6841 25.4567 23.8097C25.1534 23.9353 24.8283 24 24.5 24Z" fill="#003CBF"/>
<path d="M1 7.5C1.26522 7.5 1.51957 7.39464 1.70711 7.20711C1.89464 7.01957 2 6.76522 2 6.5V2.5C2 2.36739 2.05268 2.24021 2.14645 2.14645C2.24021 2.05268 2.36739 2 2.5 2H4C4.26522 2 4.51957 1.89464 4.70711 1.70711C4.89464 1.51957 5 1.26522 5 1C5 0.734784 4.89464 0.48043 4.70711 0.292893C4.51957 0.105357 4.26522 0 4 0L2.5 0C1.83696 0 1.20107 0.263392 0.732233 0.732233C0.263392 1.20107 0 1.83696 0 2.5L0 6.5C0 6.76522 0.105357 7.01957 0.292893 7.20711C0.48043 7.39464 0.734784 7.5 1 7.5Z" fill="#003CBF"/>
<path d="M30.995 28C31.5473 28 31.995 27.5523 31.995 27C31.995 26.4477 31.5473 26 30.995 26C30.4427 26 29.995 26.4477 29.995 27C29.995 27.5523 30.4427 28 30.995 28Z" fill="#00E1F0"/>
<path d="M20 27C20 27.2652 20.1054 27.5196 20.2929 27.7071C20.4804 27.8946 20.7348 28 21 28H27C27.2652 28 27.5196 27.8946 27.7071 27.7071C27.8946 27.5196 28 27.2652 28 27C28 26.7348 27.8946 26.4804 27.7071 26.2929C27.5196 26.1054 27.2652 26 27 26H21C20.7348 26 20.4804 26.1054 20.2929 26.2929C20.1054 26.4804 20 26.7348 20 27Z" fill="#003CBF"/>
</g>
<defs>
<clipPath id="clip0_331_1039">
<rect width="32" height="32" fill="white"/>
</clipPath>
</defs>
</svg>
